<?xml version="1.0" standalone="no"?>
<svg xmlns="http://www.w3.org/2000/svg" width="210.12418372650035" height="73.26047315618221" viewBox="0 0 210.12418372650035 73.26047315618221"><g fill="#d61216" color="#d61216" transform="translate(0 0) scale(1.5262599)"><svg width="44.0" height="48.0" x="0.0" y="0.0" viewBox="0 0 44 48"><path fill="currentColor" fill-rule="evenodd" d="M26.592 7.876c-1.442 3.958-2.352 9.744-2.352 16.195 0 6.393.894 12.136 2.311 16.09-.691.939-1.454 1.46-2.256 1.46-3.13-.003-5.665-7.895-5.665-17.634 0-9.734 2.535-17.63 5.661-17.63.82.001 1.599.546 2.3 1.52M37.084 24.07c.003 6.693-1.663 12.123-3.716 12.123s-3.717-5.43-3.717-12.121c0-6.696 1.664-12.124 3.717-12.127 2.056.003 3.719 5.43 3.716 12.125M21.51 0c2.12.002 4.037 2.67 5.43 6.98 1.172-2.82 2.642-4.504 4.238-4.504 3.83-.005 6.936 9.668 6.934 21.594.002 11.926-3.106 21.597-6.937 21.596-1.607 0-3.089-1.711-4.265-4.573-1.389 4.256-3.296 6.882-5.397 6.884-4.257-.002-7.708-10.74-7.708-23.99C13.805 10.745 17.257 0 21.51 0zm-6.145 2.36c-5.194 4.504-8.651 12.467-8.651 21.535 0 9.067 3.455 17.03 8.655 21.531C6.292 41.661-.003 33.435 0 23.894 0 14.356 6.292 6.129 15.365 2.361zm26.647 14.91c1.098 0 1.986 2.9 1.988 6.483-.002 3.577-.891 6.48-1.99 6.48-1.096 0-1.985-2.9-1.987-6.482-.002-3.58.891-6.482 1.99-6.482z"></path></svg></g><path fill="#152452" fill-rule="nonzero" d="M3.83 23.38Q2.05 21.68 1.03 19.30Q0 16.91 0 14.07Q0 11.23 0.96 8.69Q1.91 6.15 3.69 4.22Q5.47 2.29 7.99 1.14Q10.51 0 13.63 0L13.63 0Q19.02 0 22.71 3.40L22.71 3.40Q26.66 7.03 26.66 13.20L26.66 13.20Q26.66 19.18 22.60 23.14L22.60 23.14Q20.10 25.59 16.64 26.50L16.64 26.50Q14.94 26.95 12.67 26.95Q10.39 26.95 8.00 26.02Q5.61 25.08 3.83 23.38ZM5.43 13.81L5.43 13.81Q5.43 15.63 6.04 17.15Q6.64 18.67 7.71 19.77L7.71 19.77Q10 22.07 13.59 22.07L13.59 22.07Q17.01 22.07 19.08 19.86L19.08 19.86Q21.19 17.58 21.19 13.63L21.19 13.63Q21.19 9.92 19.18 7.44L19.18 7.44Q17.01 4.79 13.24 4.79L13.24 4.79Q9.59 4.79 7.44 7.48L7.44 7.48Q5.43 10 5.43 13.81ZM41.02 26.48L40.98 26.54Q40.39 26.46 38.98 26.46L38.98 26.46L36.72 26.46Q36.05 26.46 35.63 26.50L35.63 26.50L35.61 26.46Q35.68 26.33 35.68 26.15Q35.68 25.98 35.65 25.78Q35.63 25.59 35.50 25.08Q35.37 24.57 35.12 23.61L35.12 23.61L28.48 0.41Q29.73 0.49 31.50 0.49Q33.28 0.49 33.81 0.33L33.81 0.33L38.42 18.01L42.91 0.41Q43.20 0.43 43.44 0.45L43.44 0.45L43.87 0.45Q44.51 0.49 45.49 0.49Q46.46 0.49 47.50 0.33L47.50 0.33L52.07 18.01L56.00 0.41Q57.17 0.49 59.06 0.49Q60.96 0.49 61.37 0.33L61.37 0.33L55.74 20.94Q54.67 24.49 54.61 25.16Q54.55 25.82 54.55 26.07Q54.55 26.33 54.63 26.48L54.63 26.48L54.59 26.54Q53.96 26.46 52.62 26.46L52.62 26.46Q51.45 26.46 50.49 26.46Q49.53 26.46 49.10 26.50L49.10 26.50L49.08 26.46Q49.16 26.33 49.16 26.15Q49.16 25.98 49.14 25.80Q49.12 25.63 49.03 25.13Q48.95 24.63 48.75 23.65L48.75 23.65L48.22 21.00L45.02 8.83L41.97 20.94Q41.04 24.67 41.00 25.23L41.00 25.23Q40.92 26.31 41.02 26.48L41.02 26.48ZM67.21 23.38Q65.43 21.68 64.40 19.30Q63.38 16.91 63.38 14.07Q63.38 11.23 64.34 8.69Q65.29 6.15 67.07 4.22Q68.85 2.29 71.37 1.14Q73.89 0 77.01 0L77.01 0Q82.40 0 86.09 3.40L86.09 3.40Q90.04 7.03 90.04 13.20L90.04 13.20Q90.04 19.18 85.98 23.14L85.98 23.14Q83.48 25.59 80.02 26.50L80.02 26.50Q78.32 26.95 76.04 26.95Q73.77 26.95 71.38 26.02Q68.98 25.08 67.21 23.38ZM68.81 13.81L68.81 13.81Q68.81 15.63 69.41 17.15Q70.02 18.67 71.09 19.77L71.09 19.77Q73.38 22.07 76.97 22.07L76.97 22.07Q80.39 22.07 82.46 19.86L82.46 19.86Q84.57 17.58 84.57 13.63L84.57 13.63Q84.57 9.92 82.56 7.44L82.56 7.44Q80.39 4.79 76.62 4.79L76.62 4.79Q72.97 4.79 70.82 7.48L70.82 7.48Q68.81 10 68.81 13.81Z" transform="translate(82.156 0) scale(1.422)"></path><path fill="#152452" fill-rule="nonzero" d="M5.10 21.78L13.07 21.78Q14.28 21.78 14.75 21.54L14.75 21.54L14.82 21.56L14.63 26.46L0 26.46L0 0.35Q0.53 0.39 1.17 0.41L1.17 0.41L2.54 0.45Q3.91 0.49 5.51 0.49L5.51 0.49Q9.98 0.49 14.36 0.33L14.36 0.33Q14.14 2.05 14.14 4.92L14.14 4.92Q14.14 5.23 14.18 5.39L14.18 5.39L14.14 5.45Q13.13 5.16 11.25 5.16L11.25 5.16L5.10 5.16L5.10 10.14L9.73 10.14Q11.88 10.14 12.30 10.02L12.30 10.02L12.36 14.84Q11.43 14.75 9.94 14.75L9.94 14.75L5.10 14.75L5.10 21.78ZM31.19 26.48L31.15 26.54Q30.53 26.46 29.10 26.46L29.10 26.46L26.95 26.46Q26.43 26.46 26.00 26.50L26.00 26.50L25.98 26.46Q26.05 26.33 26.05 26.15Q26.05 25.98 26.03 25.78Q26.00 25.59 25.86 25.08Q25.72 24.57 25.43 23.61L25.43 23.61L24.61 21.00L17.34 0.41Q18.55 0.49 20.43 0.49Q22.30 0.49 22.83 0.33L22.83 0.33L28.71 18.09L33.87 0.41Q35.04 0.49 36.76 0.49L36.76 0.49Q39.10 0.49 39.49 0.33L39.49 0.33L32.36 20.94Q32.36 20.94 31.68 23.22L31.68 23.22Q31.11 25.18 31.11 25.75Q31.11 26.33 31.19 26.48L31.19 26.48ZM48.44 21.78L56.41 21.78Q57.62 21.78 58.09 21.54L58.09 21.54L58.16 21.56L57.97 26.46L43.34 26.46L43.34 0.35Q43.87 0.39 44.51 0.41L44.51 0.41L45.88 0.45Q47.25 0.49 48.85 0.49L48.85 0.49Q53.32 0.49 57.70 0.33L57.70 0.33Q57.48 2.05 57.48 4.92L57.48 4.92Q57.48 5.23 57.52 5.39L57.52 5.39L57.48 5.45Q56.46 5.16 54.59 5.16L54.59 5.16L48.44 5.16L48.44 10.14L53.07 10.14Q55.21 10.14 55.64 10.02L55.64 10.02L55.70 14.84Q54.77 14.75 53.28 14.75L53.28 14.75L48.44 14.75L48.44 21.78ZM68.65 26.46L63.55 26.46Q63.67 25.80 63.67 25.02L63.67 25.02L63.67 0.49L67.58 0.49L77.93 16.78L77.93 1.82Q77.93 0.74 77.73 0.49L77.73 0.49L83.01 0.49Q82.91 1.27 82.91 2.21L82.91 2.21L82.91 26.46L78.85 26.46L68.65 10.82L68.65 26.46ZM99.30 4.86L99.30 26.58Q98.36 26.46 94.47 26.46L94.47 26.46L93.85 26.46L93.85 4.86L89.98 4.86Q88.26 4.86 87.95 5.04Q87.64 5.21 87.46 5.35L87.46 5.35L87.40 5.33L87.40 0.33L87.46 0.27Q88.11 0.49 90.94 0.49L90.94 0.49L103.18 0.49Q104.90 0.49 105.21 0.31Q105.53 0.14 105.70 0L105.70 0L105.76 0.02L105.76 5.02L105.70 5.08Q105.06 4.86 102.23 4.86L102.23 4.86L99.30 4.86ZM125.64 1.93L125.64 1.93L125.27 7.68L125.14 7.71Q123.69 5.55 120.21 4.90L120.21 4.90Q119.12 4.69 118.12 4.69Q117.11 4.69 116.40 4.86Q115.68 5.04 115.18 5.37L115.18 5.37Q114.10 6.07 114.10 7.21L114.10 7.21Q114.10 8.69 115.04 9.43L115.04 9.43Q116.21 10.33 118.93 10.69Q121.64 11.05 123.28 11.68Q124.92 12.30 125.98 13.26L125.98 13.26Q127.97 15.06 127.97 18.34L127.97 18.34Q127.97 22.64 124.73 24.96L124.73 24.96Q121.95 26.95 117.73 26.95L117.73 26.95Q114.34 26.95 111.02 25.66L111.02 25.66Q109.92 25.23 109.10 24.67L109.10 24.67L109.32 18.14L109.39 18.09Q111.82 22.27 117.34 22.27L117.34 22.27Q121.27 22.27 122.54 20.37L122.54 20.37Q122.97 19.73 122.97 18.94Q122.97 18.14 122.71 17.63Q122.46 17.11 121.88 16.74L121.88 16.74Q120.74 16.00 118.07 15.74Q115.39 15.49 113.69 14.79Q111.99 14.08 110.98 13.05L110.98 13.05Q109.14 11.17 109.14 7.81L109.14 7.81Q109.14 4.34 111.58 2.19L111.58 2.19Q114.06 0 118.27 0Q122.48 0 125.64 1.93Z" transform="translate(82.156 46.308) scale(1)"></path></svg>